<?xml version="1.0" encoding="us-ascii" standalone="no"?><svg xmlns="http://www.w3.org/2000/svg" xmlns:xlink="http://www.w3.org/1999/xlink" contentStyleType="text/css" height="143px" preserveAspectRatio="none" style="width:1136px;height:143px;background:#FFFFFF;" version="1.1" viewBox="0 0 1136 143" width="1136px" zoomAndPan="magnify"><defs/><g><!--class t_zone--><g id="elem_t_zone"><rect codeLine="1" fill="#F1F1F1" height="129.4844" id="t_zone" rx="2.5" ry="2.5" style="stroke:#181818;stroke-width:0.5;" width="161" x="472" y="7"/><ellipse cx="523.75" cy="23" fill="#F1F1F1" rx="11" ry="11" style="stroke:#181818;stroke-width:1.0;"/><path d="M527.5313,18.9688 C527.5313,18.5313 527.5156,18.3906 527.4219,18.2344 C527.2813,18 527,17.8438 526.7031,17.8438 C526.3594,17.8438 526.2188,17.9844 526.0469,18.4063 C525.4531,18.0313 524.7031,17.8438 523.8281,17.8438 C521.7188,17.8438 520.1406,19.1406 520.1406,20.8594 C520.1406,21.8281 520.6719,22.7344 521.5313,23.2188 C522.0781,23.5313 522.625,23.7031 523.7344,23.8906 C524.8906,24.0938 525.1563,24.1563 525.5156,24.3438 C525.8906,24.5469 526.125,24.8906 526.125,25.25 C526.125,25.9844 525.1406,26.5313 523.8906,26.5313 C522.7656,26.5313 521.6875,26.0469 521.5156,25.4375 C521.3906,24.9688 521.3906,24.9688 521.2656,24.8594 C521.1094,24.7031 520.8906,24.6094 520.6563,24.6094 C520.375,24.6094 520.125,24.7344 519.9531,24.9531 C519.8438,25.125 519.7969,25.3125 519.7969,25.7344 L519.7969,26.8594 C519.7969,27.625 520.0781,27.9844 520.6719,27.9844 C520.9375,27.9844 521.0625,27.9219 521.3438,27.5781 C522.1875,28.0156 523.0781,28.2344 524,28.2344 C526.3281,28.2344 527.8906,27.0469 527.8906,25.2813 C527.8906,24.3906 527.5781,23.7031 526.8906,23.1563 C526.3594,22.7344 525.7188,22.4844 524.2344,22.2188 C522.9688,21.9844 522.875,21.9531 522.5469,21.7813 C522.1719,21.5938 521.9063,21.2031 521.9063,20.8438 C521.9063,20.1094 522.7656,19.5469 523.8281,19.5469 C524.8906,19.5469 525.7031,20.0156 525.8594,20.6875 C525.9688,21.2344 525.9688,21.2344 526.0938,21.375 C526.2344,21.5 526.4688,21.6094 526.7031,21.6094 C526.9688,21.6094 527.2188,21.4688 527.3906,21.25 C527.5,21.0781 527.5313,20.9375 527.5313,20.4688 L527.5313,18.9688 Z " fill="#000000"/><text fill="#000000" font-family="sans-serif" font-size="14" lengthAdjust="spacing" textLength="49" x="544.25" y="27.8467">t_zone</text><line style="stroke:#181818;stroke-width:0.5;" x1="473" x2="632" y1="39" y2="39"/><text fill="#000000" font-family="sans-serif" font-size="14" lengthAdjust="spacing" textLength="140" x="478" y="55.9951">struct s_zone *prev</text><text fill="#000000" font-family="sans-serif" font-size="14" lengthAdjust="spacing" textLength="140" x="478" y="72.292">struct s_zone *next</text><text fill="#000000" font-family="sans-serif" font-size="14" lengthAdjust="spacing" textLength="136" x="478" y="88.5889">short int          type</text><text fill="#000000" font-family="sans-serif" font-size="14" lengthAdjust="spacing" textLength="144" x="478" y="104.8857">size_t               t_size</text><text fill="#000000" font-family="sans-serif" font-size="14" lengthAdjust="spacing" textLength="149" x="478" y="121.1826">size_t               fr_size</text><line style="stroke:#181818;stroke-width:0.5;" x1="473" x2="632" y1="128.4844" y2="128.4844"/></g><path d="M6,19 L6,44.1328 A0,0 0 0 0 6,44.1328 L437,44.1328 A0,0 0 0 0 437,44.1328 L437,37 L476,83.7422 L437,29 L437,29 L427,19 L6,19 A0,0 0 0 0 6,19 " fill="#FEFFDD" style="stroke:#181818;stroke-width:0.5;"/><path d="M427,19 L427,29 L437,29 L427,19 " fill="#FEFFDD" style="stroke:#181818;stroke-width:0.5;"/><text fill="#000000" font-family="sans-serif" font-size="13" lengthAdjust="spacing" textLength="410" x="12" y="36.0669">Determine the type of allocation that will be used with this zone</text><path d="M6,54.1328 L6,79.2656 A0,0 0 0 0 6,79.2656 L221,79.2656 A0,0 0 0 0 221,79.2656 L221,72.1328 L476,100.0391 L221,64.1328 L221,64.1328 L211,54.1328 L6,54.1328 A0,0 0 0 0 6,54.1328 " fill="#FEFFDD" style="stroke:#181818;stroke-width:0.5;"/><path d="M211,54.1328 L211,64.1328 L221,64.1328 L211,54.1328 " fill="#FEFFDD" style="stroke:#181818;stroke-width:0.5;"/><text fill="#000000" font-family="sans-serif" font-size="13" lengthAdjust="spacing" textLength="194" x="12" y="71.1997">total size of the memory zone</text><path d="M6,89.2656 L6,114.3984 A0,0 0 0 0 6,114.3984 L310,114.3984 A0,0 0 0 0 310,114.3984 L310,107.2656 L476,116.3359 L310,99.2656 L310,99.2656 L300,89.2656 L6,89.2656 A0,0 0 0 0 6,89.2656 " fill="#FEFFDD" style="stroke:#181818;stroke-width:0.5;"/><path d="M300,89.2656 L300,99.2656 L310,99.2656 L300,89.2656 " fill="#FEFFDD" style="stroke:#181818;stroke-width:0.5;"/><text fill="#000000" font-family="sans-serif" font-size="13" lengthAdjust="spacing" textLength="283" x="12" y="106.3325">nbr of bytes that haven't been allocated yet</text><!--class t_chunk--><g id="elem_t_chunk"><rect codeLine="17" fill="#F1F1F1" height="113.1875" id="t_chunk" rx="2.5" ry="2.5" style="stroke:#181818;stroke-width:0.5;" width="164" x="668.5" y="15"/><ellipse cx="717.75" cy="31" fill="#F1F1F1" rx="11" ry="11" style="stroke:#181818;stroke-width:1.0;"/><path d="M721.5313,26.9688 C721.5313,26.5313 721.5156,26.3906 721.4219,26.2344 C721.2813,26 721,25.8438 720.7031,25.8438 C720.3594,25.8438 720.2188,25.9844 720.0469,26.4063 C719.4531,26.0313 718.7031,25.8438 717.8281,25.8438 C715.7188,25.8438 714.1406,27.1406 714.1406,28.8594 C714.1406,29.8281 714.6719,30.7344 715.5313,31.2188 C716.0781,31.5313 716.625,31.7031 717.7344,31.8906 C718.8906,32.0938 719.1563,32.1563 719.5156,32.3438 C719.8906,32.5469 720.125,32.8906 720.125,33.25 C720.125,33.9844 719.1406,34.5313 717.8906,34.5313 C716.7656,34.5313 715.6875,34.0469 715.5156,33.4375 C715.3906,32.9688 715.3906,32.9688 715.2656,32.8594 C715.1094,32.7031 714.8906,32.6094 714.6563,32.6094 C714.375,32.6094 714.125,32.7344 713.9531,32.9531 C713.8438,33.125 713.7969,33.3125 713.7969,33.7344 L713.7969,34.8594 C713.7969,35.625 714.0781,35.9844 714.6719,35.9844 C714.9375,35.9844 715.0625,35.9219 715.3438,35.5781 C716.1875,36.0156 717.0781,36.2344 718,36.2344 C720.3281,36.2344 721.8906,35.0469 721.8906,33.2813 C721.8906,32.3906 721.5781,31.7031 720.8906,31.1563 C720.3594,30.7344 719.7188,30.4844 718.2344,30.2188 C716.9688,29.9844 716.875,29.9531 716.5469,29.7813 C716.1719,29.5938 715.9063,29.2031 715.9063,28.8438 C715.9063,28.1094 716.7656,27.5469 717.8281,27.5469 C718.8906,27.5469 719.7031,28.0156 719.8594,28.6875 C719.9688,29.2344 719.9688,29.2344 720.0938,29.375 C720.2344,29.5 720.4688,29.6094 720.7031,29.6094 C720.9688,29.6094 721.2188,29.4688 721.3906,29.25 C721.5,29.0781 721.5313,28.9375 721.5313,28.4688 L721.5313,26.9688 Z " fill="#000000"/><text fill="#000000" font-family="sans-serif" font-size="14" lengthAdjust="spacing" textLength="57" x="738.25" y="35.8467">t_chunk</text><line style="stroke:#181818;stroke-width:0.5;" x1="669.5" x2="831.5" y1="47" y2="47"/><text fill="#000000" font-family="sans-serif" font-size="14" lengthAdjust="spacing" textLength="148" x="674.5" y="63.9951">struct s_chunk *prev</text><text fill="#000000" font-family="sans-serif" font-size="14" lengthAdjust="spacing" textLength="148" x="674.5" y="80.292">struct s_chunk *next</text><text fill="#000000" font-family="sans-serif" font-size="14" lengthAdjust="spacing" textLength="152" x="674.5" y="96.5889">size_t                 t_size</text><text fill="#000000" font-family="sans-serif" font-size="14" lengthAdjust="spacing" textLength="143" x="674.5" y="112.8857">short int            used</text><line style="stroke:#181818;stroke-width:0.5;" x1="669.5" x2="831.5" y1="120.1875" y2="120.1875"/></g><path d="M868,36.5 L868,45.0664 L826.5,91.7422 L868,53.0664 L868,61.6328 A0,0 0 0 0 868,61.6328 L1060,61.6328 A0,0 0 0 0 1060,61.6328 L1060,46.5 L1050,36.5 L868,36.5 A0,0 0 0 0 868,36.5 " fill="#FEFFDD" style="stroke:#181818;stroke-width:0.5;"/><path d="M1050,36.5 L1050,46.5 L1060,46.5 L1050,36.5 " fill="#FEFFDD" style="stroke:#181818;stroke-width:0.5;"/><text fill="#000000" font-family="sans-serif" font-size="13" lengthAdjust="spacing" textLength="171" x="874" y="53.5669">size of the allocated chunk</text><path d="M868,71.6328 L868,80.1992 L817.5,108.0391 L868,88.1992 L868,96.7656 A0,0 0 0 0 868,96.7656 L1129,96.7656 A0,0 0 0 0 1129,96.7656 L1129,81.6328 L1119,71.6328 L868,71.6328 A0,0 0 0 0 868,71.6328 " fill="#FEFFDD" style="stroke:#181818;stroke-width:0.5;"/><path d="M1119,71.6328 L1119,81.6328 L1129,81.6328 L1119,71.6328 " fill="#FEFFDD" style="stroke:#181818;stroke-width:0.5;"/><text fill="#000000" font-family="sans-serif" font-size="13" lengthAdjust="spacing" textLength="240" x="874" y="88.6997">determines if the chunk is being used</text><!--SRC=[ZP51RiCW44NtFiNiAkK8MVSU5hR70HKF4OpJEbNlte4nYHCtKjdn1ltv_9yupZq3jzT02DyD90L9mU4SyRA3X5yiq8R8u8ZXTdWvempS5TiDrL6RyOlX67Nwqr1W18yZGnXNLyTZaNr7nZWvsSyMowRyn7WVUiCka633yEcyXmvXJZZ8XQrWbo3hD4W3PFqNIzG21pQ-k2n3MJNX5EBo7udw3UfYnjt2cDIMDHUaDnPdIDMp65oGxvAfLj7RcJuUkb3oNCPArpR-odKJ-xuiA27LpACxsVKpHVSMo3QAk_FovYcElKHPCDJY4ZYLKUDIIuUEJcgZIlq2]--></g></svg>